# xmcd
#
# Track frame offsets: 
#        150
#        11563
#        37756
#        64800
#        94445
#        104733
#        124439
#        140013
#        158485
#        175127
#        215729
#        233475
#        252289
#        283419
#
# Disc length: 4039 seconds
#
# Revision: 1
# Processed by: cddbd v1.5.2PL0 Copyright (c) Steve Scherf et al.
# Submitted via: ExactAudioCopyFreeDBPlugin 1.0
#
DISCID=cf0fc50e
DTITLE=Latin Jazz  - Beginners Guide to latin jazz CD 2 1970's
DYEAR=2008
DGENRE=Jazz
TTITLE0=Manteca -  Ella Fitzgerald
TTITLE1=Soleil - Mongo Santamaria
TTITLE2=Oye mama - Malo
TTITLE3=Listen Love - Jon Lucien
TTITLE4=O sapo - Jayme Marques
TTITLE5=Maracatu Atomico - Gilberto Gil
TTITLE6=I bet you thought I'd never find you - Jon Hendricks
TTITLE7=Expresso Madureira - Banda Black Rio
TTITLE8=Valdez in the Country - Cold Blood
TTITLE9=Merceditas - Gato Barbieri
TTITLE10=Toque de Cuica -Airto
TTITLE11=Latin Slide - La Clave
TTITLE12=Vaya - Ray Barreto  (Live at th Beacon Theatre)
TTITLE13=Jingo - Santana
EXTD=YEAR: 2008
EXTT0=
EXTT1=
EXTT2=
EXTT3=
EXTT4=
EXTT5=
EXTT6=
EXTT7=
EXTT8=
EXTT9=
EXTT10=
EXTT11=
EXTT12=
EXTT13=
PLAYORDER=
